<svg xmlns="http://www.w3.org/2000/svg" xml:space="preserve" viewBox="0 0 47.5 47.5" enable-background="new 0 0 47.5 47.5" id="diamond">
  <path d="M0 0h-6l-7-9h10l3 9z" transform="matrix(1.25 0 0 -1.25 17.5 5)" fill="#bdddf4" fill-opacity="1" fill-rule="nonzero" stroke="none"></path>
  <path d="m0 0-7 9h-6l3-9H0z" transform="matrix(1.25 0 0 -1.25 46.25 16.25)" fill="#5dadec" fill-opacity="1" fill-rule="nonzero" stroke="none"></path>
  <path d="M0 0h10L-8-21 0 0Z" transform="matrix(1.25 0 0 -1.25 33.75 16.25)" fill="#4289c1" fill-opacity="1" fill-rule="nonzero" stroke="none"></path>
  <path d="M0 0h-10L8-21 0 0Z" transform="matrix(1.25 0 0 -1.25 13.75 16.25)" fill="#8ccaf7" fill-opacity="1" fill-rule="nonzero" stroke="none"></path>
  <path d="m0 0-3-9h16l-3 9H0Z" transform="matrix(1.25 0 0 -1.25 17.5 5)" fill="#8ccaf7" fill-opacity="1" fill-rule="nonzero" stroke="none"></path>
  <path d="m0 0-8 21H8L0 0Z" transform="matrix(1.25 0 0 -1.25 23.75 42.5)" fill="#5dadec" fill-opacity="1" fill-rule="nonzero" stroke="none"></path>
</svg>
